<?xml version="1.0" standalone="no"?>
<!DOCTYPE svg PUBLIC "-//W3C//DTD SVG 20010904//EN"
 "http://www.w3.org/TR/2001/REC-SVG-20010904/DTD/svg10.dtd">
<svg version="1.0" xmlns="http://www.w3.org/2000/svg"
 width="389.000000pt" height="389.000000pt" viewBox="0 0 389.000000 389.000000"
 preserveAspectRatio="xMidYMid meet">
<metadata>
Created by potrace 1.11, written by Peter Selinger 2001-2013
</metadata>
<g transform="translate(0.000000,389.000000) scale(0.100000,-0.100000)"
fill="#000000" stroke="none">
<path d="M0 1945 l0 -1945 1943 2 1942 3 3 1943 2 1942 -1945 0 -1945 0 0
-1945z m1741 1091 c178 -32 262 -125 264 -291 0 -66 -4 -89 -25 -129 -51 -101
-142 -138 -235 -97 l-49 21 37 38 c43 45 63 89 72 162 5 46 2 62 -17 99 -35
67 -65 85 -154 89 -65 4 -81 1 -130 -23 -37 -18 -64 -40 -82 -68 -24 -36 -27
-50 -27 -127 0 -77 3 -92 34 -154 27 -55 55 -89 135 -165 237 -225 272 -265
315 -353 90 -188 92 -380 4 -567 -64 -136 -201 -245 -378 -301 -97 -31 -338
-40 -439 -16 -200 47 -324 186 -334 375 -8 147 28 251 117 334 76 72 138 97
236 97 118 0 192 -41 214 -118 l9 -31 -46 -6 c-106 -14 -192 -67 -226 -139
-19 -40 -21 -123 -4 -180 19 -63 91 -130 157 -146 197 -47 362 95 361 311 -1
174 -58 285 -265 514 -200 223 -252 323 -242 467 7 103 39 173 115 247 140
136 361 196 583 157z m858 -608 c-10 -46 -19 -86 -19 -90 0 -4 20 6 45 23 73
49 143 69 242 69 145 0 224 -52 276 -180 19 -49 22 -73 22 -220 0 -179 -10
-251 -56 -394 -100 -307 -289 -466 -553 -466 -81 0 -129 15 -171 52 -25 21
-36 26 -39 16 -3 -7 -28 -125 -56 -263 -28 -137 -56 -266 -61 -286 l-9 -35
-180 -43 c-100 -24 -182 -42 -184 -40 -2 2 90 439 203 972 l206 967 176 0 177
0 -19 -82z"/>
<path d="M2645 2243 c-42 -22 -92 -71 -104 -102 -19 -49 -151 -699 -145 -714
7 -19 64 -47 96 -47 146 0 276 181 324 452 20 117 23 290 6 340 -28 78 -105
109 -177 71z"/>
</g>
</svg>
