<svg id="Слой_1" data-name="Слой 1" xmlns="http://www.w3.org/2000/svg" viewBox="0 0 1233.61 1375.26">
  <defs>
    <style>
      .cls-1 {
          fill: #4c96cd;
      }
      .cls-2 {
          fill: none;
      }
      .cls-2,
      .cls-3,
      .cls-4,
      .cls-5,
      .cls-6 {
          stroke: #201600;
          stroke-miterlimit: 10;
      }
      .cls-2,
      .cls-3,
      .cls-5,
      .cls-6 {
          stroke-width: 10px;
      }
      .cls-3 {
          fill: #fdfdfe;
      }
      .cls-4 {
          fill: #f6d39b;
          stroke-width: 11px;
      }
      .cls-5 {
          fill: #c6984b;
      }
      .cls-6 {
          fill: #fff;
      }
      #left_eye_layer {
        animation: squeeze_left 5s infinite;
      }
      #left_eyepupil_layer {
        animation: squeeze_left 5s infinite;
      }
      #right_eye_layer {
        animation: squeeze_right 5s infinite;
        animation-delay: .15s;
      }
      #right_eyepupil_layer {
        animation: squeeze_right 5s infinite;
        animation-delay: .15s;
      }

      @keyframes squeeze_left {
        50% {
          transform: none;
          animation-timing-function: ease-in;
        }
        60% {
          transform: none;
          animation-timing-function: ease-in;
        }
        70% {
          transform: none;
          animation-timing-function: ease-in;
        }
        80% {
          transform: none;
          animation-timing-function: ease-in;
        }
        90% {
          transform: none;
          animation-timing-function: ease-in;
        }
        93% {
          transform: translateY(220px) scaleY(0.2)
        }
        100% {
          animation-timing-function: ease-out;
        }
      }      
      @keyframes squeeze_right {
        50% {
          transform: none;
          animation-timing-function: ease-in;
        }
        60% {
          transform: none;
          animation-timing-function: ease-in;
        }
        70% {
          transform: none;
          animation-timing-function: ease-in;
        }
        80% {
          transform: none;
          animation-timing-function: ease-in;
        }
        90% {
          transform: none;
          animation-timing-function: ease-in;
        }
        93% {
          transform: translateY(250px) scaleY(0.2)
        }
        100% {
          animation-timing-function: ease-out;
        }
      }      
    </style>
  </defs>
  <title>
    mascot
  </title>
  <path id="planet_layer" data-name="&lt;Составной контур&gt;" class="cls-1" d="M407.41 1267.87a509.74 509.74 0 0 0 313.68 107.39c281.89 0 512.52-229 512.52-512.52a515.16 515.16 0 0 0-77.36-269.49m0 0c-90.54-146-251.65-243-435.16-243-281.89 0-512.52 229-512.52 512.52 0 164.29 77.8 311.18 198.84 405.13m169.35-507.22c45.11 4.64 93.17 9.13 142.73 9.13q7.1 0 14.21-.09m-142.68-72.34q-5.47-.59-10.88-1.21c25.63-164.97 84.89-275.49 140.95-275.49 54.46 0 115.32 110.51 139.34 275.48q-6.19.79-12.37 1.49m0 0c-92 10.55-179.77 8-257-.28m511.25-68.48c-59.26 25.63-118.52 43.24-177.78 56.06-16-102.5-44.85-193.8-86.49-254.66 110.45 30.44 204.97 102.51 264.23 198.61zm-498.1-198.6c-41.72 60.87-72.11 153.77-86.53 256.27a1307.19 1307.19 0 0 1-185.79-44.88c57.66-102.47 155.36-179.35 272.28-211.38zm-98.92 360.74c-1.35 23.75-2 47.27-2 70.11 0 36.84 1.6 75.28 4.8 112.11-99.3 19.22-169.77 46.45-201.8 59.26-20.8-52.83-33.66-110.51-33.66-171.37 0-56.06 11.21-110.51 30.43-160.16 28.83 9.61 104.11 33.63 205 51.25-1.13 13-2.06 25.91-2.79 38.8M336.7 1090.17c30.43-12.81 94.5-35.24 179.38-51.25 16 100.9 44.85 193.8 86.49 254.66-112.08-32.04-206.61-105.71-265.87-203.41zm384.39 213c-54.46 0-115.32-110.51-139.34-273.88 81.68-11.21 177.78-16 280.28-3.2-25.62 164.98-86.49 277.1-140.94 277.1zm213.8-520.49q-1-16.08-2.38-32.08a961.49 961.49 0 0 0 200.2-62.46c22.42 54.46 35.24 112.11 35.24 174.58 0 59.26-11.21 116.92-33.63 168.17a1029.74 1029.74 0 0 0-201.8-60.86c3.2-35.24 4.8-72.07 4.8-107.31 0-27.29-.81-53.78-2.42-80m-96.88 509.26c41.64-60.86 72.07-155.36 86.49-257.86a1001.74 1001.74 0 0 1 181 52.85c-59.29 100.9-153.79 174.57-267.5 205zM733.7 769.75a1191 1191 0 0 0 133.14-9.52q4.8 48 4.8 100.9a950.26 950.26 0 0 1-4.8 97.7c-107.31-12.81-208.21-8-294.7 3.2q-4.8-48-4.8-100.9t4.8-100.9l4.62.48"/>
  <path class="cls-3" d="M837.84 438.56c9.85 7.56 0 46.81 0 46.81s24.75-25.25 35.47-32.75 24.13 38.5 24.13 38.5 18.78-34.54 33.77-36.52-81.52-24.48-81.52-24.48-21.7.88-11.85 8.44z" id="two_teeth_layer" data-name="Слой 13"/>
  <path class="cls-4" d="M144.91 482.83c11.9-31.28 31.52-80.59 55.33-126 22.66-43.22 14.3-52.4 73.33-131.33 58.07-77.65 66.24-71 116-92 50.61-21.32 88-27.5 143.33-37.33s146.67-5.33 146.67-5.33 33.67 7 40.67 10 10.25 12.33 18 16.67 2.67-29 3.33-37.33 4.57-13.37 4-16.67-6.92-39.33-6-48.67 3.08-9.33 6-9.33 6.83.17 12 8 40.75 140.5 45.33 144.67c1.19 1.09 36.1 8.68 57.47 16.3s46 22.25 49.2 22.37c13.17.5 101.08-105 98-88s-35.33 102.67-35.33 102.67a197 197 0 0 1-22.67 38c-14.08 18.08-8.08 98.08-7.33 103.33s8.83 12.17 14.67 9.33 17.92 2.5 26 7.33 20.75 22.33 24.67 29.33 7.33 22.67 7.33 22.67 12.58-25.92 33.83-11.5a48.49 48.49 0 0 1 21.5 36.83s9.83-7.67 20.67-9.33 11.83 11.42 17.33 18 9.33 27.33 9.33 27.33a26.27 26.27 0 0 1 14 7.33c6.42 6.42 7.84 61.87 0 64s-4.92 4.83-22 0-37.33-18.67-37.33-18.67a164.91 164.91 0 0 0-20.67-12.67c-12.83-6.75-28.25-7.75-46.67-16s-36.67-20.67-36.67-20.67l-40.67-34.67s-4.75-4.33-20.67-4-19.17 1.92-26.33 5.33-44.92-14.84-51-18.67-25.5-13.83-25.5-13.83c-6.83 17.67-6.83 17.67-3.5 39 0 0 4.39 45.36 3.67 54.83s-1.58 35.75-10.67 47.33-17.92 16.08-25.33 24.67-7.42 8.58-5.33 24 30.67 40 35.33 48 4.67 8 4 16.67-.6 11.88-11.33 20-96 71.33-100.67 90.67 63.67 73.33 64 77.33.33 4 4.67 21.33 20.67-28.33 51.33-26.67 39.56 13.3 59.33 34.67 15.33 12.33 47.33 58 4.4 95.43-7.33 110-58.33 84.33-122 55.33-81-116-101.33-151.33-35.33-38-63.33-147.33-17.33-216-18.67-241.33-19.33-87.33-40-87.33-112.33 18.67-126 31.33 66.4 74.08 42.67 75.33c-48.76 2.58-72.75 31.6-59.33 56.67 18 33.66-84.56 81-96 102s-20 27.33-13.33 43.33 43 24.67 98.67 56 37.83 80.62 36 86.67c-7.23 23.91-25.67 100-112 66s-117.67-91.33-133.33-96.67-79.33 9.33-94 105.33 71.33 111 98.67 142c16.31 18.49 43.75 30.58 61.33 37.32a3.43 3.43 0 0 1-1.28 6.64c-34.43-.48-102.69-3.2-127.39-16.63-23.82-13-64.59-17.31-100-87.33C7.4 1033.83-.4 1002.37 9.58 927.48c10.12-75.95 23.61-84.85 36-168.67 12.65-85.58 87.35-244.49 99.33-275.98z" id="body_layer" data-name="Слой 12"/>
  <path class="cls-5" d="M1146.2 487.37c6.54-5.2 5.75-9.5 19.75 0s11.75 29.75 11.75 29.75 2.5 11.75-7.75 33.25-10.25 21.5-29.25 14-19-7.5-28.5-23-2.25-33.75 5-40.25 22.45-8.56 29-13.75z" id="nose_layer" data-name="Слой 11"/>
  <path class="cls-6" d="M776.77 232.62c-29.24-2.34-43.32 5-44.57 28.75s-1.25 23.75 6.75 33 15 16 29.75 18.25 29.5-1.5 37.75-6 15.5-23 15.5-32.37-1-21.62-9.25-27.12-4.75-12.01-35.93-14.51z" id="left_eye_layer" data-name="Слой 10"/>
  <circle class="cls-2" cx="774.7" cy="272.75" r="8.75" id="left_eyepupil_layer" data-name="Слой 8"/>
  <path class="cls-6" d="M952.49 270.87s24.79 6.5 29.75 13.5 4.41 23.49 1 35c-4 13.5-15 24.2-20.5 25.75s-15.77 8.11-36.5 3.47c-22.25-5-22.71-10.65-30.21-20.4s-18.79-32.07-2.29-45.82 37.25-14.25 37.25-14.25z" id="right_eye_layer" data-name="Слой 9"/>
  <circle class="cls-2" cx="928.42" cy="306.96" r="14.28" id="right_eyepupil_layer" data-name="Слой 7"/>
  <path class="cls-3" d="M831.49 435.29s-13.08-9.92-20.33-12.92-7.12-3.42-18.92-10.42-53.67 8.38-72-3-51.33-34.33-64.67-34.33v35s19.92-23.75 27.92-20.5 6.5 50 6.5 50 32-24 41.64-26 11.36 35 11.36 35 23.25-35 37-35 3.5 53 3.5 53 36.81-33.51 48.08-30.83a3.81 3.81 0 0 1 1.86 1" id="teeth_layer" data-name="Слой 6"/>
</svg>